HIERARCHY
ROOT Hips
{
	OFFSET 0.000000 0.000000 0.000000
	CHANNELS 6 Xposition Yposition Zposition Zrotation Yrotation Xrotation 
	JOINT LHipJoint
	{
		OFFSET 0.000000 0.000000 0.000000
		CHANNELS 3 Zrotation Yrotation Xrotation
		JOINT LeftUpLeg
		{
			OFFSET 1.363060 -1.794630 0.839290
			CHANNELS 3 Zrotation Yrotation Xrotation
			JOINT LeftLeg
			{
				OFFSET 2.448110 -6.726130 0.000000
				CHANNELS 3 Zrotation Yrotation Xrotation
				JOINT LeftFoot
				{
					OFFSET 2.562200 -7.039590 0.000000
					CHANNELS 3 Zrotation Yrotation Xrotation
					JOINT LeftToeBase
					{
						OFFSET 0.157640 -0.433110 2.322550
						CHANNELS 3 Zrotation Yrotation Xrotation
						End Site
						{
							OFFSET 0.000000 0.000000 0.000000
						}
					}
				}
			}
		}
	}
	JOINT RHipJoint
	{
		OFFSET 0.000000 0.000000 0.000000
		CHANNELS 3 Zrotation Yrotation Xrotation
		JOINT RightUpLeg
		{
			OFFSET -1.305520 -1.794630 0.839290
			CHANNELS 3 Zrotation Yrotation Xrotation
			JOINT RightLeg
			{
				OFFSET -2.542530 -6.985550 0.000000
				CHANNELS 3 Zrotation Yrotation Xrotation
				JOINT RightFoot
				{
					OFFSET -2.568260 -7.056230 0.000000
					CHANNELS 3 Zrotation Yrotation Xrotation
					JOINT RightToeBase
					{
						OFFSET -0.164730 -0.452590 2.363150
						CHANNELS 3 Zrotation Yrotation Xrotation
						End Site
						{
							OFFSET 0.000000 0.000000 0.000000
						}
					}
				}
			}
		}
	}
	JOINT LowerBack
	{
		OFFSET 0.000000 0.000000 0.000000
		CHANNELS 3 Zrotation Yrotation Xrotation
		JOINT Spine
		{
			OFFSET 0.028270 2.035590 -0.193380
			CHANNELS 3 Zrotation Yrotation Xrotation
			JOINT Spine1
			{
				OFFSET 0.056720 2.048850 -0.042750
				CHANNELS 3 Zrotation Yrotation Xrotation
				JOINT Neck
				{
					OFFSET 0.000000 0.000000 0.000000
					CHANNELS 3 Zrotation Yrotation Xrotation
					JOINT Neck1
					{
						OFFSET -0.054170 1.746240 0.172020
						CHANNELS 3 Zrotation Yrotation Xrotation
						JOINT Head
						{
							OFFSET 0.104070 1.761360 -0.123970
							CHANNELS 3 Zrotation Yrotation Xrotation
							End Site
							{
								OFFSET 0.000000 0.000000 0.000000
							}
						}
					}
				}
				JOINT LeftShoulder
				{
					OFFSET 0.000000 0.000000 0.000000
					CHANNELS 3 Zrotation Yrotation Xrotation
					JOINT LeftArm
					{
						OFFSET 3.362410 1.200890 -0.311210
						CHANNELS 3 Zrotation Yrotation Xrotation
						JOINT LeftForeArm
						{
							OFFSET 4.983000 -0.000000 -0.000000
							CHANNELS 3 Zrotation Yrotation Xrotation
							JOINT LeftHand
							{
								OFFSET 3.483560 -0.000000 -0.000000
								CHANNELS 3 Zrotation Yrotation Xrotation
								JOINT LeftFingerBase
								{
									OFFSET 0.000000 0.000000 0.000000
									CHANNELS 3 Zrotation Yrotation Xrotation
									JOINT LeftHandIndex1
									{
										OFFSET 0.715260 -0.000000 -0.000000
										CHANNELS 3 Zrotation Yrotation Xrotation
										End Site
										{
											OFFSET 0.000000 0.000000 0.000000
										}
									}
								}
								JOINT LThumb
								{
									OFFSET 0.000000 0.000000 0.000000
									CHANNELS 3 Zrotation Yrotation Xrotation
									End Site
									{
										OFFSET 0.000000 0.000000 0.000000
									}
								}
							}
						}
					}
				}
				JOINT RightShoulder
				{
					OFFSET 0.000000 0.000000 0.000000
					CHANNELS 3 Zrotation Yrotation Xrotation
					JOINT RightArm
					{
						OFFSET -3.136600 1.374050 -0.404650
						CHANNELS 3 Zrotation Yrotation Xrotation
						JOINT RightForeArm
						{
							OFFSET -5.241900 -0.000000 -0.000000
							CHANNELS 3 Zrotation Yrotation Xrotation
							JOINT RightHand
							{
								OFFSET -3.444170 -0.000000 -0.000000
								CHANNELS 3 Zrotation Yrotation Xrotation
								JOINT RightFingerBase
								{
									OFFSET 0.000000 0.000000 0.000000
									CHANNELS 3 Zrotation Yrotation Xrotation
									JOINT RightHandIndex1
									{
										OFFSET -0.622530 -0.000000 -0.000000
										CHANNELS 3 Zrotation Yrotation Xrotation
										End Site
										{
											OFFSET 0.000000 0.000000 0.000000
										}
									}
								}
								JOINT RThumb
								{
									OFFSET 0.000000 0.000000 0.000000
									CHANNELS 3 Zrotation Yrotation Xrotation
									End Site
									{
										OFFSET 0.000000 0.000000 0.000000
									}
								}
							}
						}
					}
				}
			}
		}
	}
}
MOTION
Frames: 6
Frame Time: 0.008333
3.298835 17.671373 0.101269 25.177413 85.258406 27.776643 -0.245725 4.513985 3.064460 -18.204347 -0.151615 -5.221552 -0.028994 2.368217 10.387285 0.201400 -1.762072 -2.472033 0.034500 -1.198600 -3.295400 -3.951544 -5.845185 2.738518 18.626586 8.671839 -6.926797 -0.555398 -5.637668 21.512535 -0.789105 0.586700 -12.431896 -0.147800 2.477100 -6.826100 4.994505 -0.649370 5.252299 -0.373924 -0.299100 1.355252 -2.644710 -0.455399 -8.775896 -4.645670 -4.237356 -10.366556 3.883774 -5.452173 7.913715 1.691000 -2.618500 4.011200 -5.032258 0.057592 1.261816 -71.786983 4.485935 44.482206 20.788563 -33.830071 -5.907233 0.642606 0.326480 -34.387242 14.428653 5.595031 1.390600 -7.125000 0.000000 0.000000 -10.835200 35.677400 2.519300 5.704719 -0.445471 0.191532 67.122463 -11.015604 22.611214 -43.493286 52.543256 -21.304869 -0.154444 1.184245 16.145354 -2.002248 22.694064 -0.559700 7.125000 0.000000 0.000000 17.095900 -9.101200 14.872500 
3.306240 17.670873 0.096165 26.292264 85.448047 28.902244 -0.247015 4.489723 3.057688 -18.196562 -0.340899 -5.215834 -0.023371 2.395091 10.470305 0.204622 -1.754103 -2.570216 0.041600 -1.316300 -3.619600 -3.949023 -5.873660 2.755558 18.614793 8.599380 -6.852536 -0.532521 -5.599351 21.395109 -0.765797 0.426685 -12.502589 -0.162400 2.596400 -7.156900 4.856644 -0.634378 5.133242 -0.424023 -0.299967 1.274449 -2.644895 -0.456954 -8.800437 -4.543035 -4.230953 -10.394223 3.854229 -5.452306 8.039101 1.664400 -2.616700 4.069400 -5.031664 0.060907 1.267935 -71.805830 4.691262 44.326663 21.101353 -34.162126 -6.063299 0.653436 0.314427 -34.366762 14.426500 5.521788 1.376300 -7.125000 0.000000 0.000000 -10.829700 35.619500 2.533500 5.674794 -0.449028 0.179912 68.044539 -11.337040 21.908517 -42.911582 52.260256 -20.863752 -0.137119 1.164174 16.686402 -2.028026 22.515126 -0.569600 7.125000 0.000000 0.000000 17.079100 -9.252300 14.802300 
3.313945 17.671473 0.090261 26.259268 85.685073 28.916842 -0.252397 4.478768 3.060498 -18.062370 -0.602472 -5.343885 -0.004758 2.491121 10.716362 0.214325 -1.776617 -2.677735 0.040200 -1.293500 -3.556800 -3.950518 -5.884913 2.759779 18.720639 8.493222 -6.738843 -0.498849 -5.521121 21.189220 -0.763277 0.391028 -12.548499 -0.144800 2.452400 -6.757700 4.793174 -0.642279 4.955984 -0.405637 -0.328823 1.215853 -2.597478 -0.467052 -8.767496 -4.505007 -4.217035 -10.471337 3.829587 -5.433386 8.116344 1.649200 -2.606900 4.116300 -5.020190 0.062423 1.273134 -71.984505 4.779826 43.961637 21.302950 -34.370705 -6.166180 0.661449 0.298947 -34.162214 14.295403 5.413574 1.340300 -7.125000 0.000000 0.000000 -10.921300 35.518500 2.582900 5.643718 -0.446319 0.172709 68.834364 -11.548557 21.312824 -42.306844 51.958309 -20.408594 -0.120765 1.149609 17.160716 -2.049093 22.483264 -0.581000 7.125000 0.000000 0.000000 17.060100 -9.268600 14.778300 
3.321150 17.672074 0.082756 25.386497 85.884570 28.042702 -0.259175 4.487462 3.073754 -17.891125 -0.800665 -5.404005 0.007991 2.561177 10.881365 0.228067 -1.841610 -2.743552 0.036500 -1.233300 -3.391100 -3.956719 -5.884122 2.753439 18.868487 8.323678 -6.607315 -0.471474 -5.445266 21.010607 -0.743463 0.306079 -12.519984 -0.158200 2.562800 -7.063700 4.809005 -0.644238 4.887549 -0.402515 -0.335037 1.135663 -2.610032 -0.468535 -8.824529 -4.517958 -4.213521 -10.484329 3.898882 -5.433918 8.172217 1.683600 -2.604200 4.149100 -5.009126 0.065414 1.276517 -72.131586 4.900087 43.679840 21.467822 -34.544600 -6.252783 0.662701 0.299761 -33.963026 14.291026 5.492422 1.358100 -7.125000 0.000000 0.000000 -10.938500 35.595400 2.566300 5.610289 -0.441106 0.165822 69.697358 -11.759826 20.646587 -41.598102 51.595610 -19.877518 -0.108287 1.137932 17.526374 -2.189485 22.580300 -0.638500 7.125000 0.000000 0.000000 16.964400 -9.157200 14.726800 
3.329456 17.672874 0.075551 24.125403 86.036738 26.729109 -0.264961 4.506913 3.091530 -17.743159 -0.879261 -5.457794 0.026702 2.646579 11.089401 0.252259 -1.976657 -2.827729 0.036700 -1.236300 -3.399300 -3.962872 -5.879572 2.743236 19.015502 8.104136 -6.429301 -0.440317 -5.355480 20.804653 -0.704200 0.145114 -12.443901 -0.203600 2.905300 -8.015100 4.841946 -0.621125 4.895853 -0.420397 -0.301662 1.011681 -2.664284 -0.452196 -8.980589 -4.535119 -4.221025 -10.305677 4.001048 -5.458702 8.211262 1.735200 -2.613900 4.140900 -5.003858 0.075717 1.278302 -72.169437 5.191094 43.679225 21.741269 -34.840637 -6.393985 0.664307 0.321974 -34.225841 14.603601 5.690820 1.434700 -7.125000 0.000000 0.000000 -10.721700 35.798100 2.460100 5.578540 -0.438684 0.155778 70.613917 -12.000223 19.883239 -40.800159 51.175686 -19.285595 -0.094924 1.125817 17.890973 -2.351857 22.700730 -0.705900 7.125000 0.000000 0.000000 16.853700 -9.021900 14.669100 
3.337862 17.672474 0.070248 24.898928 86.239721 27.493887 -0.267374 4.489836 3.087101 -17.708805 -0.932669 -5.517427 0.045013 2.702568 11.251337 0.276617 -2.155966 -2.810170 0.044900 -1.367700 -3.761200 -3.961655 -5.907642 2.757227 19.040950 7.942897 -6.297751 -0.408232 -5.280762 20.599564 -0.704659 0.134604 -12.474395 -0.175400 2.697700 -7.438200 4.757133 -0.610088 4.761983 -0.469435 -0.302760 0.930600 -2.693173 -0.454107 -9.004054 -4.475309 -4.226449 -10.227819 4.068499 -5.482512 8.287681 1.757100 -2.621200 4.163500 -4.998088 0.075182 1.280849 -72.207185 5.318344 43.718159 21.954696 -35.064620 -6.502786 0.666678 0.353327 -34.731657 15.029364 5.840732 1.512200 -7.125000 0.000000 0.000000 -10.407000 35.954400 2.345500 5.540639 -0.438233 0.147174 71.543828 -12.068321 19.086184 -39.948338 50.706956 -18.656140 -0.079914 1.110563 18.198980 -2.438822 22.756483 -0.745300 7.125000 0.000000 0.000000 16.789500 -8.950900 14.632800 
